<svg xmlns="http://www.w3.org/2000/svg" xml:space="preserve" width="100" height="100" fill="#002fa7">
  <path d="m40.005 16.196.016.006c1.201.745 7.404 3.294 14.35-3.217 2.792-2.835 4.111-7.149 4.111-7.149s-2.967 1.333-5.282.441c-1.568-.609-3.128-2.485-3.425-2.857-.721-.813-1.619-1.505-2.669-1.979-4.084-1.854-8.905-.002-10.762 4.122-1.808 4.02-.161 8.654 3.661 10.633zm-8.43 83.121L20.459 53.205l6.914-2.132-.691-2.24-19.399 5.983.695 2.241 6.804-2.1z"/>
  <path d="m96.516 49.284-6.661-17.771-.046-.12-.017-.005c-.171-.321-.51-.529-.877-.529h-8.996v-4.254h.693c2.024 0 3.666-1.641 3.666-3.666s-1.642-3.666-3.666-3.666H52.24c-.061 0-.117.014-.175.018h-3.938l-9.259 19.805.068-19.805h-1.419c-3.573 0-5.818 1.944-7.222 3.812 0 0-8.938 10.219-14.829 16.967l-.696-2.252-3.912 1.209 1.441 4.673c-1.157 1.329-1.876 2.16-1.888 2.181-1.093 1.458-.706 3.546.7 4.747.691.588 1.537.877 2.379.877.727 0 1.162-.175 1.162-.175l3.915-1.207-.551-1.786c4.867-5.223 17.542-18.832 17.542-18.832s-3.741 12.001-3.57 25.437c.271 21.475 12.632 43.532 12.632 43.532h14.437s1.665-30.317-.801-44.915c-2.505-14.839-6.489-26.897-6.492-26.907l.023-.047h25.331v4.254h-8.993c-.374 0-.716.212-.869.51l-6.755 17.976c-.034.113-.046.238-.018.459.017.12.059.232.107.301l.062.123c.073.093.15.169.202.197.116.138 2.898 3.362 7.271 3.362 4.286 0 7.15-3.221 7.236-3.327.086-.065.156-.136.222-.217l.063-.099c.062-.12.101-.221.132-.411.017-.119.009-.245-.052-.45L69.573 32.87h7.545v5.115h2.801V32.87h7.547l-6.128 16.364-.049.112c-.035.115-.046.242-.016.465.018.105.053.208.113.321l.086.131c.054.068.114.127.171.167.119.138 2.98 3.359 7.271 3.359 4.374 0 7.153-3.225 7.229-3.324.099-.072.177-.149.19-.188l.095-.122c.068-.123.109-.231.144-.436.012-.138.001-.259-.056-.435zM73.34 48.63H62.911l5.214-13.904L73.34 48.63zm10.359 0 5.216-13.904 5.216 13.904H83.699z"/>
</svg>